<svg width="40" height="40" viewBox="0 0 40 40" fill="none" xmlns="http://www.w3.org/2000/svg">
<mask id="path-1-inside-1_1_476" fill="white">
<path fill-rule="evenodd" clip-rule="evenodd" d="M31.5474 22.6003C30.4673 22.2251 29.6906 21.2084 29.6906 19.9999C29.6906 18.7915 30.4673 17.7748 31.5461 17.3996C31.873 17.2865 32.0744 16.9402 31.9806 16.6078C31.7061 15.6366 31.3157 14.7165 30.8273 13.8584C30.6646 13.5715 30.3073 13.4653 30.0024 13.5894C29.4713 13.8074 28.8574 13.864 28.2215 13.7012C27.2917 13.4612 26.5316 12.7038 26.2861 11.7754C26.1178 11.1367 26.1743 10.5201 26.3909 9.98621C26.5137 9.68272 26.4074 9.32543 26.1205 9.16265C25.2694 8.68121 24.3561 8.29495 23.396 8.02319C23.0622 7.92938 22.7173 8.12941 22.6042 8.45635C22.229 9.53649 21.2123 10.3131 20.0038 10.3131C18.7968 10.3131 17.7787 9.53649 17.4049 8.45773C17.2904 8.13079 16.9441 7.92938 16.6117 8.02319C15.635 8.29909 14.7093 8.69224 13.8472 9.18472C13.5699 9.34336 13.4526 9.691 13.574 9.98759C13.7768 10.4856 13.8389 11.0539 13.7092 11.6471C13.4954 12.621 12.7243 13.4363 11.76 13.6943C11.1282 13.864 10.5212 13.8102 9.99424 13.6005C9.69075 13.4791 9.33484 13.5867 9.17344 13.8709C8.68648 14.7289 8.29746 15.6504 8.02432 16.6216C7.93052 16.9513 8.12778 17.2934 8.44921 17.4106C9.51279 17.7941 10.2743 18.8039 10.2743 19.9999C10.2743 21.196 9.51279 22.2058 8.44783 22.5893C8.1264 22.7051 7.93052 23.0472 8.02294 23.3769C8.26711 24.2419 8.60509 25.0682 9.02032 25.8462C9.18448 26.1525 9.56522 26.2573 9.88112 26.1125C10.7019 25.7359 11.7338 25.7483 12.7836 26.4408C12.945 26.547 13.094 26.696 13.2002 26.856C13.9272 27.9582 13.9065 29.0356 13.4733 29.873C13.3147 30.1806 13.4071 30.5641 13.7051 30.7393C14.6073 31.269 15.5839 31.687 16.6144 31.9767C16.9469 32.0705 17.289 31.8719 17.4007 31.5449C17.7718 30.4606 18.7926 29.6785 20.0038 29.6785C21.215 29.6785 22.2359 30.4606 22.6069 31.5449C22.7187 31.8705 23.0608 32.0705 23.3933 31.9767C24.4099 31.6911 25.3742 31.2787 26.2681 30.7586C26.5688 30.5834 26.6599 30.1958 26.4985 29.8882C26.0598 29.0494 26.0336 27.9665 26.762 26.8602C26.8682 26.7001 27.0172 26.5498 27.1786 26.4436C28.2436 25.7386 29.2851 25.7359 30.11 26.1263C30.4259 26.2753 30.8108 26.1718 30.9763 25.8642C31.3957 25.0861 31.7337 24.2584 31.9806 23.3907C32.0744 23.0583 31.8744 22.7134 31.5474 22.6003Z"/>
</mask>
<path d="M31.5461 17.3996L30.8921 15.5095L30.889 15.5106L31.5461 17.3996ZM31.9806 16.6078L33.9054 16.0647L33.9052 16.0638L31.9806 16.6078ZM30.8273 13.8584L29.0878 14.8453L29.0891 14.8477L30.8273 13.8584ZM30.0024 13.5894L29.2481 11.7371L29.2431 11.7392L30.0024 13.5894ZM28.2215 13.7012L27.7215 15.6377L27.7255 15.6387L28.2215 13.7012ZM26.2861 11.7754L24.3521 12.285L24.3525 12.2868L26.2861 11.7754ZM26.3909 9.98621L28.2442 10.7381L28.2449 10.7362L26.3909 9.98621ZM26.1205 9.16265L27.1074 7.42308L27.1052 7.42184L26.1205 9.16265ZM23.396 8.02319L23.9407 6.09879L23.937 6.09776L23.396 8.02319ZM22.6042 8.45635L24.4934 9.11264L24.4942 9.1103L22.6042 8.45635ZM17.4049 8.45773L19.2946 7.80284L19.2925 7.79667L17.4049 8.45773ZM16.6117 8.02319L16.0686 6.09834L16.068 6.09851L16.6117 8.02319ZM13.8472 9.18472L12.8552 7.44807L12.854 7.44877L13.8472 9.18472ZM13.574 9.98759L15.4263 9.23332L15.425 9.22999L13.574 9.98759ZM13.7092 11.6471L15.6627 12.076L15.6631 12.0742L13.7092 11.6471ZM11.76 13.6943L11.2431 11.7622L11.2413 11.7627L11.76 13.6943ZM9.99424 13.6005L9.25146 15.4574L9.25481 15.4588L9.99424 13.6005ZM9.17344 13.8709L7.43436 12.8831L7.43404 12.8837L9.17344 13.8709ZM8.02432 16.6216L9.94798 17.1689L9.94962 17.1631L8.02432 16.6216ZM8.44921 17.4106L7.76377 19.2895L7.77082 19.2921L8.44921 17.4106ZM8.44783 22.5893L7.77021 20.7075L7.76953 20.7078L8.44783 22.5893ZM8.02294 23.3769L6.09718 23.9168L6.09817 23.9203L8.02294 23.3769ZM9.02032 25.8462L7.25587 26.7879L7.25759 26.7911L9.02032 25.8462ZM9.88112 26.1125L10.7147 27.9305L10.7152 27.9303L9.88112 26.1125ZM12.7836 26.4408L11.6823 28.1103L11.6841 28.1115L12.7836 26.4408ZM13.2002 26.856L14.8697 25.7548L14.8665 25.7499L13.2002 26.856ZM13.4733 29.873L11.6969 28.9541L11.6958 28.9563L13.4733 29.873ZM13.7051 30.7393L12.6914 32.4634L12.6924 32.464L13.7051 30.7393ZM16.6144 31.9767L17.1575 30.0519L17.1557 30.0513L16.6144 31.9767ZM17.4007 31.5449L15.5085 30.8973L15.5082 30.8981L17.4007 31.5449ZM22.6069 31.5449L20.7147 32.1925L20.7153 32.1942L22.6069 31.5449ZM23.3933 31.9767L22.8524 30.0512L22.8501 30.0519L23.3933 31.9767ZM26.2681 30.7586L27.2739 32.4873L27.2749 32.4867L26.2681 30.7586ZM26.4985 29.8882L24.7263 30.8151L24.7275 30.8174L26.4985 29.8882ZM26.762 26.8602L25.0957 25.7541L25.0915 25.7604L26.762 26.8602ZM27.1786 26.4436L28.2781 28.1142L28.2825 28.1113L27.1786 26.4436ZM30.11 26.1263L29.2545 27.9341L29.2569 27.9352L30.11 26.1263ZM30.9763 25.8642L29.2158 24.9152L29.2151 24.9164L30.9763 25.8642ZM31.9806 23.3907L33.9042 23.9382L33.9054 23.9339L31.9806 23.3907ZM32.2037 20.711C31.8935 20.6033 31.6906 20.3208 31.6906 19.9999H27.6906C27.6906 22.096 29.0411 23.8469 30.8911 24.4895L32.2037 20.711ZM31.6906 19.9999C31.6906 19.6787 31.894 19.3961 32.2031 19.2886L30.889 15.5106C29.0406 16.1535 27.6906 17.9044 27.6906 19.9999H31.6906ZM32.2 19.2897C33.4289 18.8645 34.3146 17.5149 33.9054 16.0647L30.0558 17.1509C29.8342 16.3656 30.317 15.7085 30.8921 15.5095L32.2 19.2897ZM33.9052 16.0638C33.5855 14.9327 33.1314 13.8634 32.5655 12.8692L29.0891 14.8477C29.5 15.5695 29.8267 16.3405 30.056 17.1518L33.9052 16.0638ZM32.5669 12.8716C31.8623 11.6295 30.3946 11.2703 29.2481 11.7372L30.7567 15.4417C30.22 15.6603 29.4669 15.5135 29.0878 14.8453L32.5669 12.8716ZM29.2431 11.7392C29.1082 11.7946 28.9344 11.8192 28.7174 11.7636L27.7255 15.6387C28.7804 15.9087 29.8344 15.8203 30.7617 15.4397L29.2431 11.7392ZM28.7214 11.7647C28.494 11.706 28.2807 11.495 28.2196 11.264L24.3525 12.2868C24.7825 13.9126 26.0894 15.2163 27.7215 15.6377L28.7214 11.7647ZM28.22 11.2658C28.1641 11.0537 28.1869 10.8794 28.2442 10.7381L24.5376 9.23435C24.1618 10.1608 24.0714 11.2197 24.3521 12.285L28.22 11.2658ZM28.2449 10.7362C28.7082 9.59108 28.3471 8.1264 27.1074 7.42309L25.1336 10.9022C24.4678 10.5245 24.3191 9.77436 24.5369 9.23617L28.2449 10.7362ZM27.1052 7.42184C26.1195 6.86432 25.059 6.41532 23.9407 6.09879L22.8513 9.94759C23.6533 10.1746 24.4192 10.4981 25.1358 10.9035L27.1052 7.42184ZM23.937 6.09776C22.4924 5.69183 21.1414 6.56752 20.7141 7.8024L24.4942 9.1103C24.2932 9.6913 23.6319 10.1669 22.855 9.94862L23.937 6.09776ZM20.7149 7.80006C20.6072 8.1103 20.3247 8.31315 20.0038 8.31315V12.3131C22.0999 12.3131 23.8508 10.9627 24.4934 9.11264L20.7149 7.80006ZM20.0038 8.31315C19.6829 8.31315 19.4007 8.10905 19.2946 7.80285L15.5151 9.11262C16.1567 10.9639 17.9106 12.3131 20.0038 12.3131V8.31315ZM19.2925 7.79667C18.8651 6.57634 17.5204 5.68869 16.0686 6.09834L17.1548 9.94804C16.3678 10.1701 15.7157 9.68524 15.5173 9.11879L19.2925 7.79667ZM16.068 6.09851C14.9307 6.41978 13.8548 6.87706 12.8552 7.44807L14.8391 10.9214C15.5638 10.5074 16.3393 10.1784 17.1554 9.94787L16.068 6.09851ZM12.854 7.44877C11.6929 8.11305 11.2272 9.53365 11.7231 10.7452L15.425 9.22999C15.6781 9.84834 15.4469 10.5737 14.8404 10.9207L12.854 7.44877ZM11.7217 10.7419C11.7747 10.8721 11.7971 11.0288 11.7554 11.22L15.6631 12.0742C15.8806 11.0791 15.7789 10.0991 15.4263 9.23332L11.7217 10.7419ZM11.7557 11.2182C11.7003 11.4706 11.4768 11.6997 11.2431 11.7622L12.2769 15.6263C13.9717 15.1729 15.2904 13.7715 15.6627 12.076L11.7557 11.2182ZM11.2413 11.7627C11.0365 11.8177 10.8705 11.7966 10.7337 11.7422L9.25481 15.4588C10.1719 15.8237 11.2199 15.9102 12.2787 15.6258L11.2413 11.7627ZM10.737 11.7435C9.59221 11.2856 8.13439 11.6506 7.43436 12.8831L10.9125 14.8586C10.5353 15.5228 9.78929 15.6726 9.25146 15.4574L10.737 11.7435ZM7.43404 12.8837C6.8693 13.8788 6.41696 14.9496 6.09902 16.0801L9.94962 17.1631C10.178 16.3512 10.5037 15.579 10.9128 14.858L7.43404 12.8837ZM6.10067 16.0743C5.68968 17.5188 6.56517 18.8523 7.76378 19.2895L9.13463 15.5318C9.6904 15.7345 10.1714 16.3838 9.94798 17.1689L6.10067 16.0743ZM7.77082 19.2921C8.07467 19.4016 8.27428 19.6818 8.27428 19.9999H12.2743C12.2743 17.9261 10.9509 16.1866 9.1276 15.5292L7.77082 19.2921ZM8.27428 19.9999C8.27428 20.3177 8.0752 20.5977 7.77021 20.7075L9.12544 24.471C10.9504 23.8138 12.2743 22.0743 12.2743 19.9999H8.27428ZM7.76953 20.7078C6.55474 21.1457 5.69596 22.4856 6.09718 23.9168L9.9487 22.8371C10.1651 23.6089 9.69807 24.2645 9.12612 24.4707L7.76953 20.7078ZM6.09817 23.9203C6.38298 24.9292 6.77598 25.8887 7.25587 26.7879L10.7848 24.9046C10.4342 24.2477 10.1512 23.5546 9.94772 22.8336L6.09817 23.9203ZM7.25759 26.7911C7.97847 28.136 9.55362 28.4629 10.7147 27.9305L9.04754 24.2945C9.57681 24.0518 10.3905 24.169 10.783 24.9014L7.25759 26.7911ZM10.7152 27.9303C10.8247 27.88 10.9421 27.8568 11.0739 27.8683C11.2044 27.8796 11.4093 27.9302 11.6823 28.1103L13.8849 24.7713C12.2842 23.7155 10.5226 23.6177 9.04707 24.2947L10.7152 27.9303ZM11.6841 28.1115C11.6447 28.0855 11.6183 28.0624 11.6001 28.0442C11.5818 28.0259 11.5592 28.0002 11.5339 27.9621L14.8665 25.7499C14.6124 25.3672 14.2712 25.0256 13.8831 24.7701L11.6841 28.1115ZM11.5306 27.9572C11.7205 28.2451 11.7676 28.4569 11.7756 28.5869C11.7837 28.719 11.7563 28.8392 11.6969 28.9541L15.2497 30.7919C16.0279 29.2877 15.9804 27.4387 14.8697 25.7548L11.5306 27.9572ZM11.6958 28.9563C11.098 30.1154 11.3917 31.6992 12.6914 32.4634L14.7188 29.0152C15.4225 29.429 15.5313 30.2458 15.2509 30.7897L11.6958 28.9563ZM12.6924 32.464C13.742 33.0802 14.877 33.5658 16.0732 33.9021L17.1557 30.0513C16.2909 29.8082 15.4725 29.4578 14.7177 29.0146L12.6924 32.464ZM16.0713 33.9015C17.5177 34.3097 18.8695 33.4315 19.2933 32.1917L15.5082 30.8981C15.7084 30.3123 16.376 29.8314 17.1575 30.0519L16.0713 33.9015ZM19.293 32.1925C19.3986 31.884 19.6822 31.6785 20.0038 31.6785V27.6785C17.9031 27.6785 16.1451 29.0373 15.5085 30.8973L19.293 32.1925ZM20.0038 31.6785C20.3255 31.6785 20.6091 31.884 20.7147 32.1925L24.4992 30.8973C23.8626 29.0373 22.1046 27.6785 20.0038 27.6785V31.6785ZM20.7153 32.1942C21.1379 33.4256 22.4856 34.3109 23.9364 33.9015L22.8501 30.0519C23.636 29.8301 24.2994 30.3154 24.4986 30.8957L20.7153 32.1942ZM23.9341 33.9022C25.1167 33.57 26.2369 33.0906 27.2739 32.4873L25.2624 29.0299C24.5115 29.4667 23.7032 29.8123 22.8524 30.0512L23.9341 33.9022ZM27.2749 32.4867C28.5942 31.7182 28.876 30.1149 28.2695 28.959L24.7275 30.8174C24.4438 30.2767 24.5435 29.4487 25.2614 29.0305L27.2749 32.4867ZM28.2707 28.9612C28.2098 28.8448 28.1816 28.7228 28.1893 28.5898C28.1968 28.4592 28.2432 28.2474 28.4325 27.9599L25.0915 25.7604C23.9764 27.4542 23.9401 29.312 24.7263 30.8151L28.2707 28.9612ZM28.4283 27.9662C28.4045 28.0021 28.3833 28.0264 28.3655 28.0442C28.3479 28.0619 28.3205 28.0863 28.2781 28.1142L26.0791 24.7729C25.6855 25.032 25.346 25.3769 25.0957 25.7541L28.4283 27.9662ZM28.2825 28.1113C28.5603 27.9274 28.7663 27.8781 28.8949 27.8677C29.025 27.8572 29.1424 27.881 29.2545 27.9341L30.9655 24.3185C29.4831 23.617 27.7 23.7 26.0747 24.7758L28.2825 28.1113ZM29.2569 27.9352C30.4197 28.4836 32.01 28.1639 32.7375 26.8119L29.2151 24.9164C29.6116 24.1797 30.4321 24.0669 30.9631 24.3174L29.2569 27.9352ZM32.7369 26.8131C33.2245 25.9084 33.6174 24.9462 33.9042 23.9382L30.057 22.8433C29.85 23.5707 29.5669 24.2638 29.2158 24.9152L32.7369 26.8131ZM33.9054 23.9339C34.3138 22.4865 33.4332 21.1364 32.2014 20.7102L30.8935 24.4904C30.3155 24.2904 29.835 23.6301 30.0558 22.8476L33.9054 23.9339Z" fill="#152831" mask="url(#path-1-inside-1_1_476)"/>
<circle cx="20" cy="20" r="3" stroke="#152831" stroke-width="2"/>
</svg>
