<svg width="40" height="40" viewBox="0 0 40 40" fill="none" xmlns="http://www.w3.org/2000/svg">
<path fill-rule="evenodd" clip-rule="evenodd" d="M13.9636 30.0311L7.56647 27.951C7.07989 27.7928 6.79123 27.2928 6.8975 26.7923L8.29461 20.2122L10.251 20.6276L9.32023 25.0113L16.902 20.634L17.902 22.366L10.3202 26.7433L14.582 28.1291L13.9636 30.0311Z" fill="#152831"/>
<path fill-rule="evenodd" clip-rule="evenodd" d="M21.7321 19C21.1798 18.0434 19.9566 17.7157 19.0001 18.268C18.0435 18.8202 17.7157 20.0434 18.268 21C18.8203 21.9566 20.0435 22.2843 21.0001 21.7321C21.9566 21.1798 22.2844 19.9566 21.7321 19ZM23.4642 18C23.2915 17.701 23.0861 17.4327 22.855 17.197C21.6079 15.9249 19.6142 15.604 18.0001 16.5359C16.0869 17.6405 15.4314 20.0868 16.536 22C17.6405 23.9132 20.0869 24.5687 22.0001 23.4641C23.6142 22.5322 24.3331 20.6452 23.855 18.9291C23.7665 18.6111 23.6368 18.299 23.4642 18Z" fill="#152831"/>
<path fill-rule="evenodd" clip-rule="evenodd" d="M22.855 17.197L22.0981 17.634L23.0981 19.366L23.855 18.9291C23.7665 18.6111 23.6368 18.299 23.4642 18C23.2915 17.701 23.0861 17.4327 22.855 17.197Z" fill="#152831"/>
<path fill-rule="evenodd" clip-rule="evenodd" d="M31.7055 20.2122L33.1026 26.7923C33.2089 27.2928 32.9202 27.7928 32.4336 27.951L26.0365 30.0311L25.4181 28.1292L29.6799 26.7434L22.0981 22.366L23.0981 20.634L30.6799 25.0113L29.7491 20.6276L31.7055 20.2122Z" fill="#152831"/>
<path fill-rule="evenodd" clip-rule="evenodd" d="M18.268 19C17.7157 19.9566 18.0435 21.1798 19.0001 21.7321C19.9566 22.2843 21.1798 21.9566 21.7321 21C22.2844 20.0434 21.9566 18.8202 21.0001 18.268C20.0435 17.7157 18.8203 18.0434 18.268 19ZM16.536 18C16.3633 18.299 16.2337 18.6111 16.1451 18.929C15.667 20.6451 16.3859 22.5322 18.0001 23.4641C19.9132 24.5687 22.3596 23.9132 23.4642 22C24.5687 20.0868 23.9132 17.6405 22.0001 16.5359C20.3859 15.604 18.3923 15.9249 17.1451 17.197C16.914 17.4326 16.7086 17.701 16.536 18Z" fill="#152831"/>
<path fill-rule="evenodd" clip-rule="evenodd" d="M16.1451 18.929L16.902 19.366L17.902 17.634L17.1451 17.197C16.914 17.4326 16.7086 17.701 16.536 18C16.3633 18.299 16.2337 18.6111 16.1451 18.929Z" fill="#152831"/>
<path fill-rule="evenodd" clip-rule="evenodd" d="M14.3311 9.75671L19.3311 5.25671C19.7114 4.91443 20.2887 4.91443 20.669 5.25671L25.669 9.75671L24.3311 11.2433L21 8.24536V17H19V8.24536L15.669 11.2433L14.3311 9.75671Z" fill="#152831"/>
<path fill-rule="evenodd" clip-rule="evenodd" d="M20 22C21.1046 22 22 21.1046 22 20C22 18.8954 21.1046 18 20 18C18.8955 18 18 18.8954 18 20C18 21.1046 18.8955 22 20 22ZM20 24C20.3453 24 20.6804 23.9562 21 23.874C22.7252 23.43 24 21.8638 24 20C24 17.7909 22.2092 16 20 16C17.7909 16 16 17.7909 16 20C16 21.8638 17.2748 23.4299 19 23.874C19.3196 23.9562 19.6547 24 20 24Z" fill="#152831"/>
<path fill-rule="evenodd" clip-rule="evenodd" d="M21 23.874V23H19V23.874C19.3196 23.9562 19.6547 24 20 24C20.3453 24 20.6804 23.9562 21 23.874Z" fill="#152831"/>
</svg>
