<svg width="40" height="40" viewBox="0 0 40 40" fill="none" xmlns="http://www.w3.org/2000/svg">
<path fill-rule="evenodd" clip-rule="evenodd" d="M13 29C13.5523 29 14 28.5523 14 28C14 27.4477 13.5523 27 13 27C12.4477 27 12 27.4477 12 28C12 28.5523 12.4477 29 13 29ZM13 31C14.6569 31 16 29.6569 16 28C16 26.3431 14.6569 25 13 25C11.3431 25 10 26.3431 10 28C10 29.6569 11.3431 31 13 31Z" fill="#152831"/>
<path fill-rule="evenodd" clip-rule="evenodd" d="M27 29C27.5523 29 28 28.5523 28 28C28 27.4477 27.5523 27 27 27C26.4477 27 26 27.4477 26 28C26 28.5523 26.4477 29 27 29ZM27 31C28.6569 31 30 29.6569 30 28C30 26.3431 28.6569 25 27 25C25.3431 25 24 26.3431 24 28C24 29.6569 25.3431 31 27 31Z" fill="#152831"/>
<path fill-rule="evenodd" clip-rule="evenodd" d="M5.5 11C5.5 10.4477 5.94772 10 6.5 10H11C11.4977 10 11.9196 10.3659 11.9899 10.8586L12.3027 13.0481L29.0568 14.0016C29.346 14.0181 29.6138 14.1591 29.791 14.3882C29.9682 14.6174 30.0374 14.9121 29.9806 15.1961L27.9806 25.1961C27.8723 25.7377 27.3454 26.0889 26.8039 25.9806C26.2623 25.8723 25.9111 25.3454 26.0194 24.8039L26.0802 24.5H13.9387L13.99 24.8586C14.0681 25.4053 13.6882 25.9118 13.1414 25.9899C12.5947 26.0681 12.0882 25.6882 12.0101 25.1414L10.1327 12H6.5C5.94772 12 5.5 11.5523 5.5 11ZM13.653 22.5H26.4802L27.7936 15.933L12.5913 15.0678L13.653 22.5Z" fill="#152831"/>
</svg>
