<svg width="40" height="40" viewBox="0 0 40 40" fill="none" xmlns="http://www.w3.org/2000/svg">
<path fill-rule="evenodd" clip-rule="evenodd" d="M21.5273 13.8826C21.8532 13.0956 22 12.4583 22 12C22 10.6829 21.6405 9.581 21.1643 8.86676C20.6789 8.13854 20.2278 8 20 8C19.7722 8 19.3212 8.13854 18.8357 8.86676C18.3595 9.581 18 10.6829 18 12C18 12.4583 18.1468 13.0956 18.4728 13.8826C18.7902 14.649 19.2285 15.4413 19.6917 16.1758C19.7948 16.3392 19.898 16.4981 20 16.6514C20.1021 16.4981 20.2053 16.3392 20.3083 16.1758C20.7715 15.4413 21.2098 14.649 21.5273 13.8826ZM21.2485 18.3668C22.4222 16.7038 24 14.0812 24 12C24 8.68629 22.2091 6 20 6C17.7909 6 16 8.68629 16 12C16 14.0812 17.5778 16.7038 18.7515 18.3668C19.4466 19.3517 20 20 20 20C20 20 20.5534 19.3517 21.2485 18.3668Z" fill="#152831"/>
<path fill-rule="evenodd" clip-rule="evenodd" d="M18.0489 19.8751C17.8646 19.0435 17.6193 18.4373 17.3564 18.0618C16.6009 16.9829 15.6744 16.2865 14.8747 15.9746C14.0593 15.6565 13.6104 15.8017 13.4238 15.9324C13.2372 16.063 12.9472 16.4352 12.9672 17.3102C12.9868 18.1684 13.3243 19.2773 14.0798 20.3561C14.3427 20.7316 14.8284 21.1694 15.5469 21.6271C16.2465 22.0728 17.06 22.4704 17.8607 22.8064C18.0388 22.8812 18.2145 22.9521 18.386 23.0192C18.3817 22.8351 18.3751 22.6457 18.3658 22.4528C18.3239 21.5855 18.2285 20.685 18.0489 19.8751ZM20.3926 23.7083C20.4002 21.6728 20.1884 18.6195 18.9947 16.9147C17.094 14.2002 14.0862 13.027 12.2766 14.2941C10.467 15.5612 10.5408 18.7889 12.4415 21.5033C13.6352 23.2081 16.4319 24.4514 18.3472 25.1405C19.4815 25.5485 20.3067 25.7622 20.3067 25.7622C20.3067 25.7622 20.3881 24.9137 20.3926 23.7083Z" fill="#152831"/>
<path fill-rule="evenodd" clip-rule="evenodd" d="M18.0489 27.8751C17.8646 27.0435 17.6193 26.4373 17.3564 26.0618C16.6009 24.9829 15.6744 24.2865 14.8747 23.9746C14.0593 23.6565 13.6104 23.8017 13.4238 23.9324C13.2372 24.063 12.9472 24.4352 12.9672 25.3102C12.9868 26.1684 13.3243 27.2773 14.0798 28.3561C14.3427 28.7316 14.8284 29.1694 15.5469 29.6271C16.2465 30.0728 17.06 30.4704 17.8607 30.8064C18.0388 30.8812 18.2145 30.9521 18.386 31.0192C18.3817 30.8351 18.3751 30.6457 18.3658 30.4528C18.3239 29.5854 18.2285 28.685 18.0489 27.8751ZM20.3926 31.7083C20.4002 29.6728 20.1884 26.6195 18.9947 24.9147C17.094 22.2002 14.0862 21.027 12.2766 22.2941C10.467 23.5612 10.5408 26.7889 12.4415 29.5033C13.6352 31.2081 16.4319 32.4514 18.3472 33.1405C19.4815 33.5485 20.3067 33.7622 20.3067 33.7622C20.3067 33.7622 20.3881 32.9137 20.3926 31.7083Z" fill="#152831"/>
<path fill-rule="evenodd" clip-rule="evenodd" d="M24.4566 29.6273C25.175 29.1697 25.6608 28.7318 25.9237 28.3564C26.6791 27.2775 27.0166 26.1686 27.0363 25.3104C27.0563 24.4355 26.7663 24.0633 26.5797 23.9326C26.3931 23.8019 25.9441 23.6567 25.1287 23.9748C24.329 24.2867 23.4025 24.9832 22.6471 26.0621C22.3842 26.4375 22.1389 27.0437 21.9545 27.8754C21.775 28.6852 21.6795 29.5857 21.6377 30.453C21.6284 30.646 21.6218 30.8353 21.6174 31.0194C21.789 30.9524 21.9646 30.8814 22.1427 30.8067C22.9434 30.4707 23.757 30.073 24.4566 29.6273ZM21.6562 33.1407C23.5715 32.4517 26.3682 31.2083 27.562 29.5035C29.4626 26.7891 29.5364 23.5614 27.7268 22.2943C25.9172 21.0272 22.9094 22.2005 21.0087 24.9149C19.815 26.6197 19.6032 29.673 19.6108 31.7085C19.6153 32.914 19.6967 33.7624 19.6967 33.7624C19.6967 33.7624 20.5219 33.5488 21.6562 33.1407Z" fill="#152831"/>
<path fill-rule="evenodd" clip-rule="evenodd" d="M24.4566 21.6273C25.175 21.1697 25.6608 20.7318 25.9237 20.3564C26.6791 19.2775 27.0166 18.1686 27.0363 17.3104C27.0563 16.4355 26.7663 16.0633 26.5797 15.9326C26.3931 15.8019 25.9441 15.6567 25.1287 15.9748C24.329 16.2867 23.4025 16.9832 22.6471 18.0621C22.3842 18.4375 22.1389 19.0437 21.9545 19.8754C21.775 20.6852 21.6795 21.5857 21.6377 22.453C21.6284 22.646 21.6218 22.8353 21.6174 23.0194C21.789 22.9524 21.9646 22.8814 22.1427 22.8067C22.9434 22.4707 23.757 22.073 24.4566 21.6273ZM21.6562 25.1407C23.5715 24.4517 26.3682 23.2083 27.562 21.5035C29.4626 18.7891 29.5364 15.5614 27.7268 14.2943C25.9172 13.0272 22.9094 14.2005 21.0087 16.9149C19.815 18.6197 19.6032 21.673 19.6108 23.7085C19.6153 24.914 19.6967 25.7624 19.6967 25.7624C19.6967 25.7624 20.5219 25.5488 21.6562 25.1407Z" fill="#152831"/>
<path d="M19 20H21V32H19V20Z" fill="#152831"/>
<rect x="19.25" y="33" width="1.5" height="2" rx="0.75" fill="#152831"/>
</svg>
