<svg width="112" height="14" viewBox="0 0 112 14" fill="none" xmlns="http://www.w3.org/2000/svg">
<path d="M5.59615 14C3.37821 14 1.51282 13.5192 0 12.5577V8.51923C0.615385 9.04487 1.48718 9.48718 2.61538 9.84615C3.76923 10.2179 4.78846 10.4038 5.67308 10.4038C6.71154 10.4038 7.23077 10.1923 7.23077 9.76923C7.23077 9.58974 7.03846 9.41026 6.65385 9.23077C6.28205 9.0641 5.53846 8.8141 4.42308 8.48077C2.94872 8.04487 1.83974 7.49359 1.09615 6.82692C0.365385 6.14744 0 5.26282 0 4.17308C0 2.82692 0.51282 1.79487 1.53846 1.07692C2.5641 0.358974 3.98077 0 5.78846 0C7.49359 0 9.11538 0.358974 10.6538 1.07692V4.92308C9.98718 4.52564 9.16026 4.20513 8.17308 3.96154C7.17308 3.69231 6.27564 3.55769 5.48077 3.55769C4.6859 3.55769 4.28846 3.72436 4.28846 4.05769C4.28846 4.22436 4.47436 4.39744 4.84615 4.57692C5.21795 4.71795 6.05769 4.98718 7.36538 5.38462C8.77564 5.80769 9.82051 6.35897 10.5 7.03846C11.1795 7.71795 11.5192 8.5641 11.5192 9.57692C11.5192 10.9231 10.9744 12 9.88461 12.8077C8.79487 13.6026 7.36538 14 5.59615 14Z" fill="#9C1421"/>
<path d="M17.9444 13.9808C16.4059 13.9808 15.0983 13.5192 14.0213 12.5962C12.9444 11.6474 12.4059 10.3718 12.4059 8.76923C12.4059 7.28205 12.8931 6.04487 13.8675 5.05769C14.8547 4.05769 16.1431 3.55769 17.7329 3.55769C19.1047 3.55769 20.2521 4.02564 21.1752 4.96154C22.0983 5.88462 22.5598 7.13462 22.5598 8.71154V9.63462H16.2521C16.4059 10.0192 16.7201 10.3141 17.1944 10.5192C17.6816 10.7115 18.2329 10.8077 18.8483 10.8077C20.0277 10.8077 21.0918 10.5577 22.0406 10.0577V13.0192C21.1431 13.6603 19.7777 13.9808 17.9444 13.9808ZM16.1752 7.71154H18.8098C18.797 7.27564 18.6688 6.92949 18.4252 6.67308C18.1944 6.40385 17.8995 6.26923 17.5406 6.26923C16.7713 6.26923 16.3162 6.75 16.1752 7.71154Z" fill="#9C1421"/>
<path d="M26.9504 13.9808C24.9632 13.9808 23.9696 12.9744 23.9696 10.9615V0.269231H28.0081V10.0577C28.0081 10.2372 28.0594 10.3718 28.162 10.4615C28.2645 10.5513 28.3863 10.5962 28.5273 10.5962C28.694 10.5962 28.8543 10.5641 29.0081 10.5V13.5962C28.4697 13.8526 27.7838 13.9808 26.9504 13.9808Z" fill="#9C1421"/>
<path d="M35.4662 13.9808C33.9277 13.9808 32.62 13.5192 31.5431 12.5962C30.4662 11.6474 29.9277 10.3718 29.9277 8.76923C29.9277 7.28205 30.4149 6.04487 31.3893 5.05769C32.3764 4.05769 33.6649 3.55769 35.2547 3.55769C36.6264 3.55769 37.7739 4.02564 38.697 4.96154C39.62 5.88462 40.0816 7.13462 40.0816 8.71154V9.63462H33.7739C33.9277 10.0192 34.2418 10.3141 34.7162 10.5192C35.2034 10.7115 35.7547 10.8077 36.37 10.8077C37.5495 10.8077 38.6136 10.5577 39.5623 10.0577V13.0192C38.6649 13.6603 37.2995 13.9808 35.4662 13.9808ZM33.697 7.71154H36.3316C36.3188 7.27564 36.1906 6.92949 35.947 6.67308C35.7162 6.40385 35.4213 6.26923 35.0623 6.26923C34.2931 6.26923 33.838 6.75 33.697 7.71154Z" fill="#9C1421"/>
<path d="M46.5831 13.9808C45.66 13.9808 44.7946 13.8013 43.9869 13.4423C43.1664 13.0705 42.4805 12.4744 41.9292 11.6538C41.3651 10.8205 41.0831 9.85256 41.0831 8.75C41.0831 7.63462 41.3651 6.66667 41.9292 5.84615C43.0062 4.32051 44.5703 3.55769 46.6215 3.55769C47.7113 3.55769 48.6856 3.74359 49.5446 4.11539V7.44231C48.7369 7.14744 47.9805 7 47.2754 7C46.6215 7 46.0831 7.16026 45.66 7.48077C45.2369 7.78846 45.0254 8.21795 45.0254 8.76923C45.0254 9.33333 45.2433 9.77564 45.6792 10.0962C46.1151 10.4038 46.6728 10.5577 47.3523 10.5577C48.16 10.5577 48.9292 10.391 49.66 10.0577V13.3462C48.6728 13.7692 47.6472 13.9808 46.5831 13.9808Z" fill="#9C1421"/>
<path d="M52.1197 10.7692V6.96154H50.562V3.80769H52.1197V1.42308H56.1582V3.80769H58.4082V6.96154H56.1582V9.51923C56.1582 9.87821 56.2351 10.141 56.389 10.3077C56.5428 10.4615 56.8056 10.5385 57.1774 10.5385C57.6133 10.5385 58.0364 10.4295 58.4467 10.2115V13.3654C57.7672 13.7756 56.8761 13.9808 55.7736 13.9808C54.6838 13.9808 53.7992 13.6987 53.1197 13.1346C52.4531 12.5705 52.1197 11.7821 52.1197 10.7692Z" fill="#9C1421"/>
<path d="M67.3744 14C65.1693 14 63.3295 13.3526 61.8552 12.0577C60.3936 10.75 59.6629 9.0641 59.6629 7C59.6629 4.9359 60.3872 3.25641 61.8359 1.96154C63.2718 0.653846 65.1052 0 67.3359 0C68.6693 0 69.8039 0.237179 70.7398 0.711538V4.61538C69.65 4.02564 68.5539 3.73077 67.4513 3.73077C66.4257 3.73077 65.5795 4.04487 64.9129 4.67308C64.2462 5.28846 63.9129 6.0641 63.9129 7C63.9129 7.96154 64.259 8.75 64.9513 9.36539C65.6564 9.96795 66.5411 10.2692 67.6052 10.2692C68.9129 10.2692 70.0218 9.94872 70.9321 9.30769V13.2692C69.9962 13.7564 68.8103 14 67.3744 14Z" fill="#9C1421"/>
<path d="M81.8202 8.46154L85.8394 13.7308H81.0125L77.4355 8.92308H76.8586V13.7308H72.724V0.269231H79.224C80.7625 0.269231 81.9868 0.679487 82.8971 1.5C83.8202 2.30769 84.2817 3.33974 84.2817 4.59615C84.2817 5.44231 84.0638 6.20513 83.6279 6.88462C83.192 7.55128 82.5894 8.07692 81.8202 8.46154ZM76.8586 5.90385H78.7432C79.1279 5.90385 79.4355 5.80769 79.6663 5.61538C79.9099 5.41026 80.0317 5.14103 80.0317 4.80769C80.0317 4.47436 79.9099 4.21154 79.6663 4.01923C79.4355 3.82692 79.1279 3.73077 78.7432 3.73077H76.8586V5.90385Z" fill="#9C1421"/>
<path d="M88.4088 9.28846C89.0498 9.28846 89.6011 9.51923 90.0627 9.98077C90.5242 10.4167 90.755 10.9679 90.755 11.6346C90.755 12.2885 90.5242 12.8462 90.0627 13.3077C89.6011 13.7692 89.0498 14 88.4088 14C87.7678 14 87.2101 13.7692 86.7357 13.3077C86.2742 12.8462 86.0434 12.2885 86.0434 11.6346C86.0434 10.9808 86.2742 10.4295 86.7357 9.98077C87.1973 9.51923 87.755 9.28846 88.4088 9.28846Z" fill="#9C1421"/>
<path d="M96.1797 13.7308H92.1412V3.80769H96.1797V5.38462C96.372 4.97436 96.763 4.57051 97.3528 4.17308C97.9553 3.76282 98.5964 3.55769 99.2758 3.55769C99.4938 3.55769 99.6733 3.57692 99.8143 3.61538V7.42308C99.3784 7.32051 98.9746 7.26923 98.6028 7.26923C97.5258 7.26923 96.7182 7.55769 96.1797 8.13462V13.7308Z" fill="#9C1421"/>
<path d="M107.25 9.90385V3.80769H111.288V13.7308H107.25V12.4615C107.019 12.8333 106.628 13.1795 106.077 13.5C105.551 13.8205 104.974 13.9808 104.346 13.9808C103.282 13.9808 102.468 13.641 101.904 12.9615C101.34 12.2821 101.058 11.3269 101.058 10.0962V3.80769H105.115V9.23077C105.115 9.62821 105.205 9.92949 105.385 10.1346C105.577 10.3397 105.821 10.4423 106.115 10.4423C106.564 10.4423 106.942 10.2628 107.25 9.90385Z" fill="#9C1421"/>
</svg>
